# Made in Blockbench 4.0.1
mtllib cistern.mtl

o base
v 0.9375 0.25 0.9375
v 0.9375 0.25 0.0625
v 0.75 0 0.75
v 0.75 0 0.25
v 0.0625 0.25 0.9375
v 0.0625 0.25 0.0625
v 0.25 0 0.75
v 0.25 0 0.25
vt 0.4375 0.21875
vt 0 0.21875
vt 0.09375 0.05625000000000002
vt 0.34375 0.05625000000000002
vt 0.34375 0.05625000000000002
vt 0.4375 0.21875
vt 0 0.21875
vt 0.09375 0.05625000000000002
vt 0.9375 0.53125
vt 0.9375 0.28125
vt 0.6875 0.28125
vt 0.6875 0.53125
vt 0.34375 0.05625000000000002
vt 0.4375 0.21875
vt 0 0.21875
vt 0.09375 0.05625000000000002
vt 0.4375 0.21875
vt 0 0.21875
vt 0.09375 0.05625000000000002
vt 0.34375 0.05625000000000002
vn 0.8 -0.6 0
vn -0.8 -0.6 0
vn 0 -1 0
vn 0 -0.6 0.8
vn 0 -0.6 -0.8
usemtl m_0
f 2/1/1 1/2/1 3/3/1 4/4/1
f 7/5/2 5/6/2 6/7/2 8/8/2
f 4/9/3 3/10/3 7/11/3 8/12/3
f 3/13/4 1/14/4 5/15/4 7/16/4
f 6/17/5 2/18/5 4/19/5 8/20/5
o wallN
v 0.8125 0.75 0.1875
v 0.8125 0.75 0.0625
v 0.8125 0.25 0.1875
v 0.8125 0.25 0.0625
v 0.0625 0.75 0.0625
v 0.0625 0.75 0.1875
v 0.0625 0.25 0.0625
v 0.0625 0.25 0.1875
vt 0.5 0.78125
vt 0.875 0.78125
vt 0.875 0.53125
vt 0.5 0.53125
vt 0 0.53125
vt 0.375 0.53125
vt 0.375 0.28125
vt 0 0.28125
vt 0 0.78125
vt 0.0625 0.78125
vt 0.0625 0.53125
vt 0 0.53125
vt 0 0.28125
vt 0.375 0.28125
vt 0.375 0.21875
vt 0 0.21875
vn 0 0 -1
vn 0 0 1
vn -1 0 0
vn 0 1 0
usemtl m_0
f 12/24/6 15/23/6 13/22/6 10/21/6
f 16/28/7 11/27/7 9/26/7 14/25/7
f 15/32/8 16/31/8 14/30/8 13/29/8
f 14/36/9 9/35/9 10/34/9 13/33/9
o wallW
v 0.1875000000000001 0.75 0.18750000000000017
v 0.06250000000000011 0.75 0.1875000000000001
v 0.1875000000000001 0.25 0.18750000000000017
v 0.06250000000000011 0.25 0.1875000000000001
v 0.06249999999999989 0.75 0.9375000000000001
v 0.1874999999999999 0.75 0.9375000000000002
v 0.06249999999999989 0.25 0.9375000000000001
v 0.1874999999999999 0.25 0.9375000000000002
vt 0.0625 0.78125
vt 0.4375 0.78125
vt 0.4375 0.53125
vt 0.0625 0.53125
vt 0 0.53125
vt 0.375 0.53125
vt 0.375 0.28125
vt 0 0.28125
vt 0.4375 0.78125
vt 0.5 0.78125
vt 0.5 0.53125
vt 0.4375 0.53125
vt 0 0.28125
vt 0.375 0.28125
vt 0.375 0.21875
vt 0 0.21875
vn -1 0 -2.220446049250313e-16
vn 1 0 2.220446049250313e-16
vn -2.220446049250313e-16 0 1
vn 0 1 0
usemtl m_0
f 20/40/10 23/39/10 21/38/10 18/37/10
f 24/44/11 19/43/11 17/42/11 22/41/11
f 23/48/12 24/47/12 22/46/12 21/45/12
f 22/52/13 17/51/13 18/50/13 21/49/13
o wallE
v 0.8125000000000002 0.7499999999999997 0.8124999999999998
v 0.9375000000000002 0.7499999999999997 0.8124999999999997
v 0.8125000000000002 0.24999999999999967 0.8124999999999998
v 0.9375000000000002 0.24999999999999964 0.8124999999999997
v 0.9375 0.7499999999999997 0.06249999999999967
v 0.8125 0.7499999999999997 0.06249999999999972
v 0.9375 0.24999999999999964 0.06249999999999967
v 0.8125 0.24999999999999967 0.06249999999999972
vt 0.0625 0.78125
vt 0.4375 0.78125
vt 0.4375 0.53125
vt 0.0625 0.53125
vt 0 0.53125
vt 0.375 0.53125
vt 0.375 0.28125
vt 0 0.28125
vt 0.4375 0.78125
vt 0.5 0.78125
vt 0.5 0.53125
vt 0.4375 0.53125
vt 0 0.28125
vt 0.375 0.28125
vt 0.375 0.21875
vt 0 0.21875
vn 1 -2.44812800590143e-16 -2.220446049250313e-16
vn -1 2.44812800590143e-16 2.220446049250313e-16
vn -2.220446049250313e-16 5.435936158762878e-32 -1
vn 2.44812800590143e-16 1 -5.055555011315539e-33
usemtl m_0
f 28/56/14 31/55/14 29/54/14 26/53/14
f 32/60/15 27/59/15 25/58/15 30/57/15
f 31/64/16 32/63/16 30/62/16 29/61/16
f 30/68/17 25/67/17 26/66/17 29/65/17
o falseBase
v 0.8125 0.3125 0.8125
v 0.8125 0.3125 0.1875
v 0.8125 0.25 0.8125
v 0.8125 0.25 0.1875
v 0.1875 0.3125 0.1875
v 0.1875 0.3125 0.8125
v 0.1875 0.25 0.1875
v 0.1875 0.25 0.8125
vt 0.375 0.53125
vt 0.6875 0.53125
vt 0.6875 0.21875
vt 0.375 0.21875
vn 0 1 0
usemtl m_0
f 38/72/18 33/71/18 34/70/18 37/69/18
o wallS
v 0.1875000000000001 0.7499999999999999 0.8125
v 0.1875000000000001 0.7499999999999999 0.9375
v 0.1875 0.2499999999999999 0.8125
v 0.1875 0.24999999999999986 0.9375
v 0.9375 0.7499999999999998 0.9374999999999999
v 0.9375 0.7499999999999998 0.8124999999999999
v 0.9375 0.24999999999999978 0.9374999999999998
v 0.9375 0.2499999999999998 0.8124999999999998
vt 0.5 0.78125
vt 0.875 0.78125
vt 0.875 0.53125
vt 0.5 0.53125
vt 0 0.53125
vt 0.375 0.53125
vt 0.375 0.28125
vt 0 0.28125
vt 0 0.78125
vt 0.0625 0.78125
vt 0.0625 0.53125
vt 0 0.53125
vt 0 0.28125
vt 0.375 0.28125
vt 0.375 0.21875
vt 0 0.21875
vn 1.224646799147353e-16 -1.2246467991473535e-16 1
vn -1.224646799147353e-16 1.2246467991473535e-16 -1
vn 1 -1.224646799147353e-16 -1.2246467991473535e-16
vn 1.2246467991473535e-16 1 1.224646799147353e-16
usemtl m_0
f 44/76/19 47/75/19 45/74/19 42/73/19
f 48/80/20 43/79/20 41/78/20 46/77/20
f 47/84/21 48/83/21 46/82/21 45/81/21
f 46/88/22 41/87/22 42/86/22 45/85/22
o rimN
v 0.31250000000000017 0.875 0.31250000000000006
v 0.8750000000000002 0.8749999999999999 0.3124999999999999
v 0.3125000000000001 0.75 0.31250000000000006
v 0.8750000000000002 0.7499999999999999 0.3124999999999999
v 0.8750000000000001 0.8749999999999999 0.12499999999999989
v 0.3125000000000001 0.875 0.12500000000000006
v 0.8750000000000001 0.7499999999999999 0.12499999999999989
v 0.3125000000000001 0.75 0.12500000000000006
vt 0.28125 0.90625
vt 0.375 0.90625
vt 0.375 0.84375
vt 0.28125 0.84375
vt 0 0.84375
vt 0.28125 0.84375
vt 0.28125 0.78125
vt 0 0.78125
vt 0 0.90625
vt 0.28125 0.90625
vt 0.28125 0.84375
vt 0 0.84375
vt 0.28125 1
vt 0 1
vt 0 0.90625
vt 0.28125 0.90625
vn 1 -2.44812800590143e-16 -2.220446049250313e-16
vn 2.220446049250313e-16 -5.435936158762878e-32 1
vn -2.220446049250313e-16 5.435936158762878e-32 -1
vn 2.44812800590143e-16 1 -5.055555011315539e-33
usemtl m_0
f 52/92/23 55/91/23 53/90/23 50/89/23
f 51/96/24 52/95/24 50/94/24 49/93/24
f 55/100/25 56/99/25 54/98/25 53/97/25
f 54/104/26 49/103/26 50/102/26 53/101/26
o rimW
v 0.3125 0.875 0.6875
v 0.3125 0.875 0.125
v 0.3125 0.75 0.6875
v 0.3125 0.75 0.125
v 0.125 0.875 0.125
v 0.125 0.875 0.6875
v 0.125 0.75 0.125
v 0.125 0.75 0.6875
vt 0.28125 0.90625
vt 0.375 0.90625
vt 0.375 0.84375
vt 0.28125 0.84375
vt 0 0.84375
vt 0.28125 0.84375
vt 0.28125 0.78125
vt 0 0.78125
vt 0 0.90625
vt 0.28125 0.90625
vt 0.28125 0.84375
vt 0 0.84375
vt 0.28125 1
vt 0 1
vt 0 0.90625
vt 0.28125 0.90625
vn 0 0 -1
vn 1 0 0
vn -1 0 0
vn 0 1 0
usemtl m_0
f 60/108/27 63/107/27 61/106/27 58/105/27
f 59/112/28 60/111/28 58/110/28 57/109/28
f 63/116/29 64/115/29 62/114/29 61/113/29
f 62/120/30 57/119/30 58/118/30 61/117/30
o rimE
v 0.6875000000000001 0.875 0.3125000000000001
v 0.6875000000000002 0.875 0.8750000000000001
v 0.6875 0.75 0.31250000000000006
v 0.6875000000000001 0.75 0.875
v 0.8750000000000002 0.875 0.875
v 0.8750000000000001 0.875 0.31250000000000006
v 0.8750000000000002 0.75 0.875
v 0.8750000000000001 0.75 0.31250000000000006
vt 0.28125 0.90625
vt 0.375 0.90625
vt 0.375 0.84375
vt 0.28125 0.84375
vt 0 0.84375
vt 0.28125 0.84375
vt 0.28125 0.78125
vt 0 0.78125
vt 0 0.90625
vt 0.28125 0.90625
vt 0.28125 0.84375
vt 0 0.84375
vt 0.28125 1
vt 0 1
vt 0 0.90625
vt 0.28125 0.90625
vn 1.224646799147353e-16 -1.2246467991473535e-16 1
vn -1 1.224646799147353e-16 1.2246467991473535e-16
vn 1 -1.224646799147353e-16 -1.2246467991473535e-16
vn 1.2246467991473535e-16 1 1.224646799147353e-16
usemtl m_0
f 68/124/31 71/123/31 69/122/31 66/121/31
f 67/128/32 68/127/32 66/126/32 65/125/32
f 71/132/33 72/131/33 70/130/33 69/129/33
f 70/136/34 65/135/34 66/134/34 69/133/34
o rimS
v 0.6875 0.875 0.6875
v 0.12499999999999994 0.875 0.6874999999999999
v 0.6875 0.75 0.6875
v 0.12499999999999994 0.75 0.6874999999999999
v 0.12499999999999989 0.875 0.8749999999999999
v 0.6874999999999999 0.875 0.875
v 0.12499999999999989 0.75 0.8749999999999999
v 0.6874999999999999 0.75 0.875
vt 0.28125 0.90625
vt 0.375 0.90625
vt 0.375 0.84375
vt 0.28125 0.84375
vt 0 0.84375
vt 0.28125 0.84375
vt 0.28125 0.78125
vt 0 0.78125
vt 0 0.90625
vt 0.28125 0.90625
vt 0.28125 0.84375
vt 0 0.84375
vt 0.28125 1
vt 0 1
vt 0 0.90625
vt 0.28125 0.90625
vn -1 0 -2.220446049250313e-16
vn 2.220446049250313e-16 0 -1
vn -2.220446049250313e-16 0 1
vn 0 1 0
usemtl m_0
f 76/140/35 79/139/35 77/138/35 74/137/35
f 75/144/36 76/143/36 74/142/36 73/141/36
f 79/148/37 80/147/37 78/146/37 77/145/37
f 78/152/38 73/151/38 74/150/38 77/149/38